<svg version="1.2" xmlns="http://www.w3.org/2000/svg" viewBox="0 0 153 1359" width="256" height="2274">
	<title>dovahkiin</title>
	<style>
		.s0 { opacity: .3;fill: #ffffff } 
	</style>
	<path id="Dovahkiin" class="s0" aria-label="Dovahkiin"  d="m23.9 22.4v1.6q3.5 0.6 5.5 0.6h5.6q2.8 0 10.4-0.4 0.8 1.5 1.7 1.5-0.5 4.5-0.5 4.9-1 66.8-2.6 66.8-3.4 33-7.8 50.1-3.5 0-6.4-3.4-0.3-11-0.3-15.7v-38.8q0-42-1-51.9 0.6-1.1 0.6-2.6 0-1.4-8-4.1l-1.6-6.4zm74.7 3.1l-4.9-5q12.1 5.2 14.2 5.2h20.5q1.7 0 2.8 2.3l-3.6 11.1q-0.7 12.1-3.4 12.1-1.4 1.9-3.4 17.5-1.9 13.9-4.8 13.9-2.6 3.2-6.2 3.2 0-0.6-0.6-0.6 1.2-18.2 1.2-24.2 0-2.5-0.9-18.6 1.2 0 1.5-1.5v-0.4q0-2.5-8.9-5.2-4.3-4.2-4.3-5.2v-0.3q0-2.7 0.8-4.3zm-20.3 0.5q2.1 0 15.9 12v2.4q-13.9 12-15.9 12-2.6 0-16.2-12.4v-2q13.9-12 16.2-12zm22.8 148.3l0.3 0.6q4 1.4 5.4 1.4h21.6q2.8 0 3.9 2.5-8.8 20.7-10.9 22.3-2.3 0-4.3 13.2l-2 0.9q-6.8-1.2-6.8-6.1-0.3-3.8-0.6-14.3 0.7-2.6 2.1-5.7 0-2-6.5-2.8-2 0-6.8-5.5 1-6.5 4.6-6.5zm-46.6 1.7h2.2q7.1 0.6 11.7 0.6h18q2.6 0.7 2.6 3.5v1.8q0 3.4-4.3 5.4-3.9 6.1-8 13.1-1.7 1-9.3 2.2l-1-2v-4.9l-0.3-1.8q1-4.4 1.8-5.2v-1q0-1.1-7.7-2.1-4.9-1.4-4.9-4.4-0.5 0-0.8-3.3zm30.4 37.6l0.6-0.1q1.9 0 17.2 13.5 5.3 2.6 5.3 6.2-0.4 2.9-9.7 8.1l-33 24.9q-7.5 0-17.1 7.4-18 11.5-28.4 17.3l-1.3-2.6q0-5.6 16.9-19.4 7.1-6.7 10-6.7 0.8 0 4.3 0.3 1.4 0 2.2-2.8 13.6-10.2 25.1-21.2 0.7-0.9 2.1-5.3 5.2-2.8 5.2-5.5 0-2.2-2.9-5.7v-1.4q0-7 3.5-7zm-49.2 108.1q8 7.2 10.9 14.5l6.2 2.3q13.7 19.9 13.7 21 0.1 3.8 1.7 3.8 7.2 5.6 7.2 12.1l-2.4 1.2q-10.6-5-10.6-7.8-7.2-9.4-19.3-18.3-5.8-3.7-9.5-9.8-1.5-0.4-2.5-0.4-3.5 0-8.8 3.3-9.3-1.3-9.3-4.2 4-1.2 22.7-17.7zm76.1 11.4l-1.7-1.7h4.7q4.7 2.7 15 12.1 6.9 4.7 7.3 6.8v0.7q0 3.2-8.9 7.6-14.8 11-33.8 25.8-7.6 0-14.1 5.5-23.7 15-31.5 19l-1.2-2.5v-0.6q0-5.4 23-23.7 1.2-1.1 3.9-1.9 2.3 0.4 3.3 0.4h0.9q1.4 0 2-2.8 12.8-9.4 25.9-22.1 0.8-4.3 3.8-6.2 3-1.5 3-3v-0.9q0-1.9-3.3-6 0-4.4 1.7-6.5zm-7.8 73.7q8.7 1.2 14.3 1.2h16.5q2.9 0.4 2.9 4.2 0 4.6-4.2 5.8l-8.1 13.6q-2.3 0.9-9 2.1l-1-2q-0.3-5.4-0.3-6.7 0-1.1 1.8-5.8 0-1.5-7.7-2.3-4.6-1.3-4.6-3.2l-1.2-5.3 0.6-0.3zm-5.9 67.8v-1q7.2 2.6 7.7 2.6h22.6q2.8 0 3.8 2.5-8.8 21-10.8 22.4-2.3 0-4.2 13.2l-2 0.9q-7.1-1.4-7.1-6.3v-5.6q0-3.2-0.3-8.6l2-5.7q0-1.5-8.5-2.8-4.6-4.7-4.6-5.8 1.1-5.8 1.4-5.8zm-46.8 16.2q1.9 0 15.9 12.1v2.3q-13.9 12-16.2 12-2.2 0-16-12v-2.3q13.8-12.1 16.3-12.1zm33.6 22.6h1.3q3.4 1.5 16.3 13.6 5.1 2.1 5.1 3.8 0.3 0 0.3 1.8-0.2 3.4-10.1 8.9l-32.4 24.6q-7.5 0-17.2 7.4-17.9 11.5-28.4 17.3l-1.2-2.5q0-5.9 18.6-20.9 5.2-5.2 8.5-5.2 3.5 0.3 3.9 0.3 1.4 0 2.2-2.8 13.1-10 25.6-21.8 1.1-5.2 5.1-7.3 1.7-0.8 1.7-2.8v-0.3q0-2-3.3-6.5 1-7.6 4-7.6zm10.7 111.3l2.3-1.2q5.7 0.9 7.7 0.9h5.6q2.8 0 10.4-0.3 0.6 1.2 1.6 1.2-0.4 5.7-0.4 6-0.7 64.5-3 64.5-0.9 5.3-4.5 38.4-2.1 10.6-3.2 13.6-3.9-0.8-6.1-3.7-0.3-25.8-0.3-39.1v-36q0-19.6-1.1-31.4 0.6-1 0.6-2.5 0-1.4-8.2-4.1 0-1.7-1.4-6.3zm-31-3.8l-18.5 18.5h-2.6q2.6 0 15.9 12.2v1.9q-3.5 3.4-14.3 12h-1.6q-2.4 0-15.9-12.1v-1.8q1.8-2.6 37-30.7zm6.4 44.8h2.7q7.7 4.9 7.7 12.1 3 28.8 3.8 28.8 3.6 3.3 3.6 11.2 0 2.2 3.8 12v1q-0.7 2.2-4.3 2.2h-20.2q-0.5 0-7 2.1-2.2-3.2-2.2-6.2v-0.7q2.9-4.7 12.1-7.7 1.1-1.3 1.1-3.2 0-0.5-1.4-2.4l0.8-18q0-7-1.2-30.1l0.7-0.2zm55.8 108.6h1.1q2.2 1.4 2.2 2.7v22.2l-1 2q-6-0.9-9-4.5-3.8-0.9-6.1-4 0-0.1-1-0.3-0.7 0-2.2 0.9-9.4-0.9-15.6-0.9-22.6 0-69.8 0.3-4.4-1.6-4.4-5.5 9.9-3.5 67.9-7.6 7-2.6 37.9-5.3zm-0.2 32.9h0.5q3 0.5 3 2.2v21.9q0 2.1-2.6 2.1-6.9-1.3-6.9-4.1-0.4-0.3-4.2-1.1-2.5-3-3.2-3h-1.2l-2.1 0.6q-9.6-0.6-13.1-0.6h-60.9q-3.8 0-10.2 0.3-5.1-1.3-5.1-5.5 10.7-3.8 67.2-7.7 18.8-4.4 29-4.4zm-59 24.5q4.9 2 7.1 2h22.5q2.2 0.5 2.2 2.1v0.8q-9.3 22-12.1 22.3-0.8 0-3.1 13.5h-2.1q-6.6-1.2-6.6-5.6-0.3-10.5-0.3-15.4l1.7-5q0-2-7.8-2.8-5-4.5-5-5.9 0.5-5.5 3.5-6zm-15.3 91.8h1.4q4.3 0.9 6.2 0.9h5.7q2.9 0 10.5-0.4 0.6 1.5 1.4 1.5 0 2.2-0.3 4.8-0.7 66.1-3.2 66.1-3.8 35.4-5.5 42.5-0.9 7.1-2.3 8.5-6 0-6-9.4v-37.5q0-53.5-1.2-63.2 0.7-1 0.7-1.5 0-2.3-7.9-4.8l-1.6-6.5zm50.5 0.9v0.8q3.3 1.3 4.1 1.3h22q3.8 0 4.3 2.1 0 2.1-10 22.6-3.3 0-5.3 14.1h-2.4q-6.4-1.8-6.4-5.2-0.2-7.1-0.2-11.2v-4.1q0-2.3 1.7-4.9v-0.3q0-2.2-6.5-3.2-1.8 0-6.4-5.1v-1q0.4-5.9 5.1-5.9zm-85.1 26.8l3.7-0.1q0.3 0 0.3 0.3 4.5 0.2 7.4 0.2h18.5q2.9 0 3.8 2.3v3.5q0 3.7-3.5 4.4-2.1 2.7-8.6 14-5.7 1.5-9.3 1.5l-0.8-1.8v-7q0-2.1 1.7-5 0-2-8.3-2.9-3.8 0-5.4-9.4zm34.5 122.3h1.3q4.4 0.9 6.3 0.9h5.7q2.8 0 10.5-0.4 0.6 1.6 1.4 1.6 0 2.1-0.3 4.7-0.7 66.2-3.2 66.2-3.8 35.3-5.6 42.4-0.8 7.1-2.2 8.6-6 0-6-9.4v-37.5q0-53.6-1.2-63.3 0.7-1 0.7-1.5 0-2.2-7.9-4.8l-1.6-6.5zm50.5 0.9v0.8q3.3 1.3 4.1 1.3h21.9q3.9 0 4.4 2.1 0 2.1-10 22.6-3.3 0-5.3 14.1h-2.4q-6.4-1.8-6.4-5.1-0.3-7.2-0.3-11.3v-4.1q0-2.3 1.8-4.9v-0.2q0-2.3-6.5-3.3-1.8 0-6.4-5.1v-1q0.4-5.9 5.1-5.9zm-85.1 26.8l3.7-0.1q0.3 0 0.3 0.4 4.5 0.2 7.4 0.2h18.4q3 0 3.9 2.2v3.5q0 3.7-3.5 4.5-2.1 2.6-8.6 13.9-5.7 1.5-9.3 1.5l-0.8-1.7v-7.1q0-2 1.7-5 0-1.9-8.3-2.9-3.8 0-5.5-9.4zm60.5 122.8h1.7q11.7 9.3 14.5 12.1v1.9q-11.8 10.5-15.3 12.4-2.8 0-16.7-12.1v-2.3q13.6-12 15.8-12zm48.5 53.2q2.3 0.5 3.5 2.3l-0.3 2.4v19.6q0 2-2.4 2-3.9 0-7.4-4.1-5.9-1.4-5.9-3.4-0.9-0.7-1.2-0.7h-0.8q-0.4 0-1.7 1-7.2-1-14.1-1h-41.3q-10.5 0-29.6 0.3-3.4 0-5.4-5.5 11.7-3.9 68-7.7 8.7-2.6 28-4.4 1.6 0 10.6-0.8zm2 32.6v0.8q1.2 0.5 1.2 1.9v22.3l-1 1.5q-5.3 0-9.1-4.4-3.7 0-5.7-3.2-0.1 0-0.8-0.6h-1.1l-2 0.6q-2.7 0-12.4-0.9-26.9 0.3-42.7 0.3h-29.6q-3.4 0-5-4.1 0-2.4 19.4-4.9 56.4-4.1 56.4-6.3 18.3-1.9 32.4-3z"/>
</svg>